<?xml version="1.0" standalone="no"?>
<!DOCTYPE svg PUBLIC "-//W3C//DTD SVG 1.1//EN" "http://www.w3.org/Graphics/SVG/1.1/DTD/svg11.dtd" >
<svg xmlns="http://www.w3.org/2000/svg" width="100%" height="100%">
<metadata>
Created by FontXChange 20100429 at Mon Jun 25 11:09:46 2012
 By Aaron
2006 Xavier Dupre published by FSI Fonts und Software GmbH
</metadata>
<defs>
<font id="SanukLF-Regular" horiz-adv-x="500" >
  <font-face 
    font-family="SanukLF-Regular"
    font-weight="500"
    font-stretch="normal"
    units-per-em="1000"
    panose-1="0 0 0 0 0 0 0 0 0 0"
    ascent="800"
    descent="-200"
    x-height="531"
    cap-height="733"
    bbox="-81 -231 1156 955"
    underline-thickness="20"
    underline-position="-123"
    stemh="76"
    stemv="89"
    unicode-range="U+0020-FB02"
  />
<missing-glyph horiz-adv-x="548" 
 />
    <glyph glyph-name=".notdef" horiz-adv-x="548" 
 />
    <glyph glyph-name="space" unicode=" " horiz-adv-x="206" 
 />
    <glyph glyph-name="exclam" unicode="!" horiz-adv-x="303" 
d="M196 470l-10 -243h-69c-3 81 -10 243 -10 243v263h89v-263zM210 51c0 -36 -22 -57 -59 -57c-35 0 -58 21 -58 57c0 35 24 55 59 55c33 0 58 -17 58 -55z" />
    <glyph glyph-name="quotedbl" unicode="&#x22;" horiz-adv-x="391" 
d="M159 733l-10 -262h-78l-10 262h98zM330 733l-9 -262h-78l-11 262h98z" />
    <glyph glyph-name="numbersign" unicode="#" horiz-adv-x="573" 
d="M536 524l-16 -85h-92l-36 -204h91l-16 -86h-91l-26 -149h-60l26 149h-123l-26 -149h-60l26 149h-96l16 86h96l36 204h-95l16 85h94l25 137h60l-24 -137h122l24 137h61l-25 -137h93zM368 439h-122l-37 -204h122z" />
    <glyph glyph-name="dollar" unicode="$" horiz-adv-x="573" 
d="M506 214c0 -113 -77 -178 -184 -189v-61h-85v59c-41 2 -101 12 -165 35l22 81c96 -31 148 -38 200 -38c73 0 117 38 117 107c0 53 -28 80 -88 102l-111 41c-104 38 -145 88 -145 170c0 105 73 176 180 188v59h86v-58c35 -1 86 -8 139 -21l-17 -81c-82 20 -128 25 -171 25
c-73 0 -123 -32 -123 -107c0 -47 28 -71 91 -94l110 -41c91 -34 144 -84 144 -177z" />
    <glyph glyph-name="percent" unicode="%" horiz-adv-x="860" 
d="M592 661l-262 -661h-62l263 661h61zM356 471c0 -144 -61 -200 -152 -200c-87 0 -151 51 -151 200c0 154 70 200 152 200c86 0 151 -49 151 -200zM281 471c0 106 -20 142 -76 142c-52 0 -77 -29 -77 -142c0 -112 23 -142 76 -142c52 0 77 29 77 142zM806 190
c0 -144 -60 -200 -151 -200c-87 0 -151 51 -151 200c0 154 70 200 152 200c85 0 150 -49 150 -200zM732 190c0 106 -21 142 -77 142c-52 0 -77 -29 -77 -142c0 -112 24 -142 77 -142c51 0 77 29 77 142z" />
    <glyph glyph-name="ampersand" unicode="&#x26;" horiz-adv-x="661" 
d="M661 6v-6h-108l-79 92c-76 -78 -122 -102 -211 -102c-150 0 -231 61 -231 200c0 113 27 167 170 228c-50 63 -68 103 -68 157c0 114 73 168 186 168c100 0 170 -51 170 -158c0 -77 -38 -131 -156 -191l150 -174l148 150v-119l-94 -99zM263 72c51 0 87 11 157 87l-171 200
c-100 -43 -124 -72 -124 -166c0 -90 60 -121 138 -121zM405 583c0 68 -35 89 -88 89c-60 0 -95 -25 -95 -94c0 -43 16 -68 64 -125c83 36 119 73 119 130z" />
    <glyph glyph-name="quoteright" unicode="&#x2019;" horiz-adv-x="232" 
d="M194 650c0 -67 -25 -115 -112 -165l-44 55c70 36 76 54 76 92v9h-15c-24 0 -40 15 -40 42c0 32 24 53 62 53c42 0 73 -26 73 -86z" />
    <glyph glyph-name="parenleft" unicode="(" horiz-adv-x="345" 
d="M304 -139h-84c-98 130 -147 282 -147 435c0 151 48 304 147 437h84c-98 -139 -142 -288 -142 -437c0 -148 44 -295 142 -435z" />
    <glyph glyph-name="parenright" unicode=")" horiz-adv-x="345" 
d="M272 298c0 -151 -48 -304 -147 -437h-84c98 139 142 288 142 437c0 148 -44 295 -142 435h84c98 -131 147 -283 147 -435z" />
    <glyph glyph-name="asterisk" unicode="*" horiz-adv-x="427" 
d="M385 638l24 -73l-143 -41l94 -114l-64 -47l-82 122l-82 -122l-65 47l94 114l-143 41l24 73l138 -51l-6 146h79l-5 -146z" />
    <glyph glyph-name="plus" unicode="+" horiz-adv-x="519" 
d="M473 226h-174v-208h-80v208h-174v79h174v208h80v-208h174v-79z" />
    <glyph glyph-name="comma" unicode="," horiz-adv-x="272" 
d="M204 19c0 -83 -30 -138 -124 -200l-50 54c82 56 90 76 90 120v15h-12c-21 0 -37 16 -37 44c0 33 24 56 61 56c42 0 72 -27 72 -89z" />
    <glyph glyph-name="hyphen" unicode="-" horiz-adv-x="250" 
d="M227 228h-204v75h204v-75z" />
    <glyph glyph-name="period" unicode="." horiz-adv-x="272" 
d="M197 51c0 -36 -23 -58 -61 -58c-36 0 -61 22 -61 58c0 37 25 58 61 58c34 0 61 -19 61 -58z" />
    <glyph glyph-name="slash" unicode="/" horiz-adv-x="332" 
d="M373 733l-311 -872h-80l311 872h80z" />
    <glyph glyph-name="zero" unicode="0" horiz-adv-x="582" 
d="M525 367c0 -282 -88 -377 -234 -377c-138 0 -234 76 -234 377c0 307 107 376 234 376c139 0 234 -77 234 -376zM430 367c0 243 -47 298 -139 298c-84 0 -139 -41 -139 -298c0 -250 50 -299 139 -299c88 0 139 50 139 299z" />
    <glyph glyph-name="one" unicode="1" horiz-adv-x="408" 
d="M289 0h-88v651l-147 -37l-10 80l162 39h83v-733z" />
    <glyph glyph-name="two" unicode="2" horiz-adv-x="569" 
d="M497 0h-432v82c257 229 313 317 313 425c0 105 -50 151 -146 151c-42 0 -91 -9 -150 -29l-14 86c56 18 132 28 178 28c146 0 231 -77 231 -230c0 -110 -47 -205 -279 -423v-6h293z" />
    <glyph glyph-name="three" unicode="3" horiz-adv-x="565" 
d="M483 195c0 -129 -93 -205 -239 -205c-52 0 -115 6 -195 29l15 86c73 -23 139 -31 185 -31c91 0 137 41 137 126c0 87 -46 127 -143 127h-117v81h122c81 0 135 33 135 130c0 84 -44 121 -130 121c-44 0 -107 -8 -170 -29l-13 83c77 24 139 30 191 30
c129 0 218 -58 218 -195c0 -84 -40 -146 -124 -173v-7c82 -18 128 -78 128 -173z" />
    <glyph glyph-name="four" unicode="4" horiz-adv-x="561" 
d="M524 167h-89v-167h-88v167h-309v100c136 214 201 333 234 466h94c-35 -131 -102 -266 -247 -489h230l20 208h66v-204h89v-81z" />
    <glyph glyph-name="five" unicode="5" horiz-adv-x="568" 
d="M502 214c0 -142 -85 -224 -254 -224c-44 0 -104 5 -175 28l15 86c64 -22 122 -31 161 -31c113 0 156 50 156 143c0 82 -46 126 -163 126c-35 0 -108 -2 -146 -5v396h383l-9 -84h-285v-234h69c165 0 248 -73 248 -201z" />
    <glyph glyph-name="six" unicode="6" horiz-adv-x="573" 
d="M507 232c0 -158 -84 -242 -218 -242c-141 0 -224 74 -224 330c0 312 95 423 270 423c36 0 80 -5 157 -25l-17 -87c-67 21 -112 29 -140 29c-120 0 -168 -80 -176 -257c41 26 91 42 153 42c113 0 195 -63 195 -213zM416 230c0 105 -55 142 -126 142
c-45 0 -91 -13 -132 -38v-56c0 -166 51 -212 131 -212c85 0 127 57 127 164z" />
    <glyph glyph-name="seven" unicode="7" horiz-adv-x="529" 
d="M489 639c-190 -287 -299 -506 -332 -644l-95 9c39 153 137 357 330 645h-347l-7 84h451v-94z" />
    <glyph glyph-name="eight" unicode="8" horiz-adv-x="573" 
d="M510 191c0 -133 -85 -201 -228 -201c-122 0 -219 52 -219 192c0 78 43 149 142 190c-75 40 -133 89 -133 184c0 118 83 187 215 187c128 0 215 -56 215 -181c0 -87 -53 -148 -135 -187c80 -40 143 -87 143 -184zM415 196c0 71 -48 105 -137 143
c-90 -32 -121 -88 -121 -148c0 -90 52 -125 127 -125c88 0 131 43 131 130zM409 552c0 82 -46 115 -122 115c-79 0 -123 -36 -123 -116c0 -77 58 -113 130 -144c72 27 115 75 115 145z" />
    <glyph glyph-name="nine" unicode="9" horiz-adv-x="573" 
d="M65 501c0 158 83 242 218 242c141 0 224 -74 224 -330c0 -312 -95 -423 -270 -423c-36 0 -80 5 -157 25l17 87c67 -21 112 -29 140 -29c120 0 167 80 176 257c-41 -26 -91 -42 -153 -42c-113 0 -195 63 -195 213zM156 503c0 -105 55 -142 126 -142c45 0 91 13 131 38v56
c0 166 -50 212 -131 212c-84 0 -126 -57 -126 -164z" />
    <glyph glyph-name="colon" unicode=":" horiz-adv-x="272" 
d="M197 466c0 -36 -23 -58 -61 -58c-36 0 -61 22 -61 58c0 37 25 58 61 58c34 0 61 -19 61 -58zM197 51c0 -36 -23 -58 -61 -58c-36 0 -61 22 -61 58c0 37 25 58 61 58c34 0 61 -19 61 -58z" />
    <glyph glyph-name="semicolon" unicode=";" horiz-adv-x="272" 
d="M204 19c0 -83 -30 -138 -124 -200l-50 54c82 56 90 76 90 120v15h-12c-21 0 -37 16 -37 44c0 33 24 56 61 56c42 0 72 -27 72 -89zM197 466c0 -36 -23 -58 -61 -58c-36 0 -61 22 -61 58c0 37 25 58 61 58c34 0 61 -19 61 -58z" />
    <glyph glyph-name="less" unicode="&#x3c;" horiz-adv-x="519" 
d="M431 0h-97l-247 266l247 265h97v-10l-237 -253l237 -258v-10z" />
    <glyph glyph-name="equal" unicode="=" horiz-adv-x="519" 
d="M457 109h-395v78h395v-78zM457 351h-395v78h395v-78z" />
    <glyph glyph-name="greater" unicode="&#x3e;" horiz-adv-x="519" 
d="M87 531h97l247 -265l-247 -266h-97v10l237 254l-237 257v10z" />
    <glyph glyph-name="question" unicode="?" horiz-adv-x="458" 
d="M408 564c0 -106 -58 -161 -205 -201l17 -136h-74l-37 191c161 34 209 64 209 138s-43 102 -129 102c-41 0 -89 -7 -124 -18l-12 84c45 13 92 19 136 19c139 0 219 -56 219 -179zM250 50c0 -35 -22 -55 -60 -55c-35 0 -58 19 -58 55s24 56 59 56c33 0 59 -18 59 -56z" />
    <glyph glyph-name="at" unicode="@" horiz-adv-x="944" 
d="M881 392c0 -204 -127 -311 -235 -311c-49 0 -85 15 -100 54h-4c-64 -40 -102 -54 -138 -54c-72 0 -124 43 -124 143c0 172 91 286 200 286c35 0 75 -8 117 -31l5 24h76l-54 -308c-2 -11 -3 -19 -3 -22c0 -20 11 -31 39 -31c68 0 151 86 151 249c0 186 -97 288 -305 288
c-225 0 -372 -164 -372 -434c0 -219 94 -328 292 -328c45 0 118 13 165 31l8 -66c-56 -18 -126 -29 -177 -29c-234 0 -359 131 -359 392c0 318 185 498 444 498c225 0 374 -114 374 -351zM544 186l43 241c-36 18 -68 24 -90 24c-72 0 -134 -93 -134 -223
c0 -58 28 -83 70 -83c26 0 58 10 111 41z" />
    <glyph glyph-name="A" unicode="A" horiz-adv-x="631" 
d="M608 0h-104l-64 213h-252l-65 -213h-101l228 733h133zM209 293h211l-89 292c-7 23 -12 54 -12 69h-8c0 -15 -6 -46 -13 -69z" />
    <glyph glyph-name="B" unicode="B" horiz-adv-x="634" 
d="M579 200c0 -143 -91 -200 -232 -200h-239v733h211c148 0 235 -49 235 -187c0 -80 -34 -144 -112 -167v-7c89 -18 137 -78 137 -172zM478 207c0 93 -57 126 -140 126h-133v-254h132c101 0 141 40 141 128zM455 534c0 82 -45 120 -136 120h-114v-248h129
c76 0 121 37 121 128z" />
    <glyph glyph-name="C" unicode="C" horiz-adv-x="590" 
d="M558 35c-91 -37 -144 -45 -192 -45c-208 0 -297 114 -297 378c0 268 103 375 288 375c53 0 100 -8 186 -34l-23 -91c-69 26 -117 37 -158 37c-115 0 -188 -48 -188 -287c0 -249 77 -290 195 -290c36 0 81 10 167 47z" />
    <glyph glyph-name="D" unicode="D" horiz-adv-x="715" 
d="M647 380c0 -264 -118 -380 -318 -380h-221v733h219c184 0 320 -79 320 -353zM541 378c0 226 -86 272 -210 272h-123v-567h120c139 0 213 62 213 295z" />
    <glyph glyph-name="E" unicode="E" horiz-adv-x="595" 
d="M532 0h-424v733h414v-85h-314v-236h299v-84h-299v-243h316z" />
    <glyph glyph-name="F" unicode="F" horiz-adv-x="575" 
d="M504 318h-296v-318h-100v733h411v-85h-311v-245h296v-85z" />
    <glyph glyph-name="G" unicode="G" horiz-adv-x="692" 
d="M594 33c-89 -29 -173 -43 -229 -43c-210 0 -296 119 -296 378c0 270 100 375 307 375c56 0 113 -6 213 -35l-23 -92c-91 31 -140 39 -185 39c-135 0 -207 -47 -207 -287c0 -234 67 -290 194 -290c34 0 71 5 131 21v225h-144v85h239v-376z" />
    <glyph glyph-name="H" unicode="H" horiz-adv-x="735" 
d="M627 0h-100v330h-318v-330h-101v733h101v-317h318v317h100v-733z" />
    <glyph glyph-name="I" unicode="I" horiz-adv-x="317" 
d="M209 0h-101v733h101v-733z" />
    <glyph glyph-name="J" unicode="J" horiz-adv-x="323" 
d="M215 12c-1 -122 -40 -169 -195 -205l-16 90c93 24 111 45 111 100v736h100v-721z" />
    <glyph glyph-name="K" unicode="K" horiz-adv-x="654" 
d="M611 89l-5 -89c-16 -2 -26 -3 -39 -3c-54 0 -78 23 -108 77l-148 267l-103 -127v-214h-100v733h100v-386h6c9 17 29 47 50 74l246 312h107v-6l-243 -299l169 -307c14 -26 22 -34 46 -34c8 0 16 1 22 2z" />
    <glyph glyph-name="L" unicode="L" horiz-adv-x="533" 
d="M518 0h-410v733h101v-646h299z" />
    <glyph glyph-name="M" unicode="M" horiz-adv-x="912" 
d="M825 0h-96l-29 507c-1 21 -3 51 -3 85h-6c-3 -23 -11 -57 -20 -85l-165 -507h-104l-166 507c-7 22 -17 59 -20 85h-7c0 -20 0 -64 -1 -85l-31 -507h-91l49 733h121l176 -534c11 -32 21 -74 23 -96h6c2 22 10 64 20 96l174 534h122z" />
    <glyph glyph-name="N" unicode="N" horiz-adv-x="735" 
d="M626 0h-104l-286 515c-15 27 -26 55 -34 80h-6c2 -26 4 -52 4 -80v-515h-93v733h111l280 -503c13 -23 24 -48 34 -77h6c-2 26 -3 53 -3 77v503h91v-733z" />
    <glyph glyph-name="O" unicode="O" horiz-adv-x="718" 
d="M650 366c0 -265 -108 -376 -291 -376c-180 0 -290 103 -290 374s114 379 290 379c179 0 291 -104 291 -377zM545 366c0 234 -69 293 -186 293c-119 0 -185 -59 -185 -293c0 -237 72 -292 185 -292c112 0 186 51 186 292z" />
    <glyph glyph-name="P" unicode="P" horiz-adv-x="629" 
d="M569 509c0 -168 -113 -228 -253 -228h-108v-281h-100v733h220c150 0 241 -61 241 -224zM466 510c0 115 -66 140 -141 140h-117v-286h107c81 0 151 25 151 146z" />
    <glyph glyph-name="Q" unicode="Q" horiz-adv-x="718" 
d="M650 366c0 -240 -93 -349 -245 -369v-37c0 -69 31 -88 74 -88c19 0 43 4 95 22l19 -84c-55 -16 -94 -24 -124 -24c-99 0 -160 48 -160 172v39c-155 19 -240 131 -240 367c0 266 113 379 290 379c179 0 291 -105 291 -377zM545 366c0 233 -69 293 -186 293
c-119 0 -185 -60 -185 -293c0 -237 72 -291 185 -291c112 0 186 50 186 291z" />
    <glyph glyph-name="R" unicode="R" horiz-adv-x="641" 
d="M466 519c0 84 -38 134 -133 134h-127v-277h120c90 0 140 49 140 143zM600 90v-90c-12 -2 -30 -4 -42 -4c-53 0 -79 18 -109 77l-114 225h-129v-298h-98v733h230c139 0 229 -61 229 -210c0 -105 -50 -171 -138 -201l105 -200c15 -28 22 -34 46 -34c8 0 15 1 20 2z" />
    <glyph glyph-name="S" unicode="S" horiz-adv-x="582" 
d="M522 199c0 -141 -102 -209 -235 -209c-59 0 -109 5 -217 39l25 88c124 -36 153 -40 202 -40c82 0 125 42 125 116c0 57 -27 85 -90 110l-117 47c-101 40 -149 95 -149 185c0 128 96 208 239 208c48 0 99 -5 183 -25l-21 -88c-89 21 -129 26 -170 26
c-80 0 -130 -36 -130 -116c0 -51 24 -78 90 -103l117 -45c95 -37 148 -92 148 -193z" />
    <glyph glyph-name="T" unicode="T" horiz-adv-x="546" 
d="M508 648h-185v-648h-101v648h-184v85h470v-85z" />
    <glyph glyph-name="U" unicode="U" horiz-adv-x="726" 
d="M622 249c0 -186 -96 -259 -261 -259c-161 0 -258 62 -258 259v484h100v-484c0 -124 38 -172 159 -172c116 0 163 48 163 172v484h97v-484z" />
    <glyph glyph-name="V" unicode="V" horiz-adv-x="640" 
d="M609 733l-229 -733h-120l-229 733h104l171 -561c7 -23 12 -60 12 -76h7c0 16 5 53 12 76l171 561h101z" />
    <glyph glyph-name="W" unicode="W" horiz-adv-x="986" 
d="M923 733l-155 -733h-109l-145 485c-8 28 -17 71 -18 96h-7c-1 -25 -10 -68 -18 -96l-145 -485h-108l-156 733h100l104 -514c8 -37 13 -81 13 -106h7c1 25 14 81 21 106l134 466h107l137 -466c9 -31 17 -81 18 -106h7c0 25 8 76 14 106l105 514h94z" />
    <glyph glyph-name="X" unicode="X" horiz-adv-x="621" 
d="M582 0h-110l-140 250c-13 23 -23 47 -25 61h-6c-2 -14 -14 -38 -26 -60l-141 -251h-103l211 371l-206 362h111l131 -236c12 -22 24 -48 26 -60h7c3 13 22 47 30 61l134 235h104l-209 -361z" />
    <glyph glyph-name="Y" unicode="Y" horiz-adv-x="539" 
d="M526 733l-207 -442v-291h-100v292l-207 441h105l131 -280c10 -22 19 -51 20 -67h6c2 16 11 45 21 67l128 280h103z" />
    <glyph glyph-name="Z" unicode="Z" horiz-adv-x="583" 
d="M530 0h-478v97l372 551h-340l-10 85h453v-97l-373 -551h369z" />
    <glyph glyph-name="bracketleft" unicode="[" horiz-adv-x="345" 
d="M314 -139h-207v872h207l-8 -74h-106v-724h106z" />
    <glyph glyph-name="backslash" unicode="\" horiz-adv-x="355" 
d="M373 -139h-80l-311 872h80z" />
    <glyph glyph-name="bracketright" unicode="]" horiz-adv-x="345" 
d="M31 733h207v-872h-207l8 74h106v724h-106z" />
    <glyph glyph-name="asciicircum" unicode="^" horiz-adv-x="519" 
d="M435 467h-80l-97 233l-96 -233h-78v9l113 257h125l113 -257v-9z" />
    <glyph glyph-name="underscore" unicode="_" 
d="M468 -141h-436v75h436v-75z" />
    <glyph glyph-name="quoteleft" unicode="&#x2018;" horiz-adv-x="232" 
d="M38 571c0 67 25 115 112 165l44 -55c-70 -36 -76 -54 -76 -92v-9h15c24 0 40 -15 40 -42c0 -32 -24 -53 -62 -53c-42 0 -73 26 -73 86z" />
    <glyph glyph-name="a" unicode="a" horiz-adv-x="546" 
d="M446 0h-76l-5 39h-7c-90 -44 -132 -49 -161 -49c-87 0 -136 44 -136 140c0 95 57 136 139 145l161 18v122c0 32 -17 46 -55 46c-39 0 -118 -13 -193 -36l-18 78c89 26 167 38 222 38c86 0 129 -27 129 -115v-426zM361 92v139l-186 -19c-19 -21 -26 -49 -26 -75
c0 -56 22 -78 82 -78c27 0 67 9 130 33z" />
    <glyph glyph-name="b" unicode="b" horiz-adv-x="592" 
d="M529 271c0 -196 -87 -281 -208 -281c-42 0 -81 6 -134 27l-5 -17h-82v765l89 13v-288h6c75 42 115 51 151 51c114 0 183 -67 183 -270zM434 273c0 145 -37 190 -111 190c-34 0 -63 -8 -134 -45v-332c45 -16 77 -21 112 -21c84 0 133 49 133 208z" />
    <glyph glyph-name="c" unicode="c" horiz-adv-x="464" 
d="M417 20c-77 -25 -112 -30 -144 -30c-138 0 -210 84 -210 276s76 275 210 275c34 0 68 -3 134 -18l-17 -82c-54 17 -84 20 -108 20c-91 0 -124 -51 -124 -194c0 -156 41 -197 123 -197c26 0 48 4 119 32z" />
    <glyph glyph-name="d" unicode="d" horiz-adv-x="593" 
d="M493 0h-85v43h-7c-75 -43 -115 -53 -153 -53c-104 0 -185 52 -185 269s102 282 213 282c29 0 74 -6 128 -25v249l89 13v-778zM404 112v335c-41 13 -84 19 -111 19c-71 0 -134 -32 -134 -208c0 -160 46 -190 112 -190c30 0 59 6 133 44z" />
    <glyph glyph-name="e" unicode="e" horiz-adv-x="531" 
d="M456 25c-88 -26 -134 -35 -170 -35c-153 0 -223 86 -223 263c0 199 79 288 216 288c117 0 189 -65 189 -204c0 -17 -3 -86 -3 -86c-103 -2 -204 -4 -308 -7c0 -136 40 -174 129 -174c22 0 52 2 154 34zM380 308c1 18 1 37 1 43c0 85 -38 124 -104 124
c-73 0 -116 -41 -119 -171c74 2 222 4 222 4z" />
    <glyph glyph-name="f" unicode="f" horiz-adv-x="403" 
d="M361 772l-6 -81c-20 4 -37 5 -50 5c-52 0 -77 -19 -77 -78v-87h134v-78h-134v-453h-89v453h-75v78h75v66c0 116 59 181 167 181c13 0 40 -2 55 -6z" />
    <glyph glyph-name="g" unicode="g" horiz-adv-x="549" 
d="M511 -42c0 -101 -89 -188 -254 -188c-136 0 -190 45 -190 125c0 41 13 77 59 124v7c-24 7 -39 21 -39 46c0 23 12 76 38 157c-34 28 -56 63 -56 137c0 109 67 175 189 175c27 0 56 -4 81 -10h165c-4 -22 -8 -43 -11 -65h-79v-7c27 -25 37 -64 37 -101
c0 -118 -76 -164 -193 -164c-25 0 -50 2 -72 9c-12 -36 -22 -77 -22 -88c0 -19 2 -21 31 -22l180 -6c83 -3 136 -30 136 -129zM429 -49c0 49 -22 56 -71 58l-173 6c-33 -44 -38 -72 -38 -98c0 -52 31 -74 119 -74c97 0 163 35 163 108zM365 366c0 83 -37 109 -107 109
s-104 -30 -104 -109c0 -82 33 -106 104 -106c79 0 107 35 107 106z" />
    <glyph glyph-name="h" unicode="h" horiz-adv-x="604" 
d="M506 0h-89v399c0 42 -10 59 -66 59c-48 0 -102 -13 -162 -42v-416h-89v765l89 13v-293h7c100 49 139 56 187 56c78 0 123 -32 123 -118v-423z" />
    <glyph glyph-name="i" unicode="i" horiz-adv-x="289" 
d="M189 0h-89v531h89v-531zM201 694c0 -34 -21 -55 -56 -55s-57 20 -57 55c0 34 22 54 57 54c32 0 56 -18 56 -54z" />
    <glyph glyph-name="j" unicode="j" horiz-adv-x="290" 
d="M190 -77c0 -92 -36 -133 -145 -154l-20 84c68 10 76 26 76 60v618h89v-608zM201 694c0 -34 -21 -55 -56 -55s-57 20 -57 55c0 34 22 54 57 54c32 0 56 -18 56 -54z" />
    <glyph glyph-name="k" unicode="k" horiz-adv-x="541" 
d="M502 0c-7 -1 -21 -2 -31 -2c-47 0 -67 17 -92 61l-111 197l-81 -91v-165h-87v765l87 13v-505h6c10 23 32 54 47 70l172 190l96 -5l-182 -204l121 -213c12 -21 18 -27 35 -27c7 0 15 1 20 2v-86z" />
    <glyph glyph-name="l" unicode="l" horiz-adv-x="289" 
d="M189 0h-89v765l89 13v-778z" />
    <glyph glyph-name="m" unicode="m" horiz-adv-x="876" 
d="M778 0h-89v399c0 42 -10 59 -63 59c-35 0 -76 -10 -143 -42v-416h-89v399c0 44 -13 59 -58 59c-33 0 -91 -14 -147 -42v-416h-89v531h89v-46h7c97 47 137 56 183 56c47 0 79 -12 93 -58h7c87 49 133 58 180 58c78 0 119 -34 119 -119v-422z" />
    <glyph glyph-name="n" unicode="n" horiz-adv-x="604" 
d="M506 0h-89v399c0 42 -10 59 -66 59c-48 0 -103 -13 -162 -42v-416h-89v531h89v-46h7c96 46 132 56 187 56c75 0 123 -29 123 -118v-423z" />
    <glyph glyph-name="o" unicode="o" horiz-adv-x="580" 
d="M517 265c0 -197 -88 -275 -227 -275s-227 77 -227 275c0 203 92 276 228 276c128 0 226 -66 226 -276zM422 265c0 169 -53 202 -132 202c-83 0 -132 -38 -132 -202c0 -159 45 -201 132 -201c86 0 132 41 132 201z" />
    <glyph glyph-name="p" unicode="p" horiz-adv-x="592" 
d="M529 271c0 -204 -95 -281 -208 -281c-46 0 -83 6 -132 25v-235h-89v751h89v-41h6c68 38 110 51 151 51c115 0 183 -68 183 -270zM434 273c0 152 -42 190 -111 190c-34 0 -68 -11 -134 -45v-334c51 -16 87 -19 112 -19c75 0 133 38 133 208z" />
    <glyph glyph-name="q" unicode="q" horiz-adv-x="593" 
d="M404 112v332c-44 17 -85 22 -111 22c-75 0 -134 -36 -134 -208c0 -165 50 -190 112 -190c35 0 65 10 133 44zM493 -220h-89v261h-7c-68 -39 -109 -51 -149 -51c-116 0 -185 67 -185 269c0 201 89 282 212 282c42 0 79 -8 130 -28l5 18h83v-751z" />
    <glyph glyph-name="r" unicode="r" horiz-adv-x="389" 
d="M355 536l-11 -93c-13 4 -26 7 -37 7c-40 0 -64 -11 -118 -48v-402h-89v531h89v-56h6c70 57 96 66 128 66c8 0 19 -2 32 -5z" />
    <glyph glyph-name="s" unicode="s" horiz-adv-x="468" 
d="M411 149c0 -106 -74 -159 -183 -159c-39 0 -79 5 -167 29l18 77c98 -27 126 -31 157 -31c53 0 88 21 88 72c0 44 -19 61 -82 85l-81 31c-60 22 -94 59 -94 121c0 108 79 167 187 167c31 0 79 -4 139 -15l-16 -79c-77 16 -101 19 -130 19c-52 0 -93 -23 -93 -80
c0 -39 15 -48 80 -74l83 -32c55 -21 94 -61 94 -131z" />
    <glyph glyph-name="t" unicode="t" horiz-adv-x="446" 
d="M396 32c-96 -39 -125 -42 -155 -42c-73 0 -103 35 -103 114v349h-74v78h74v116l89 17v-133h154v-78h-154v-348c0 -23 10 -31 31 -31c16 0 39 2 121 37z" />
    <glyph glyph-name="u" unicode="u" horiz-adv-x="601" 
d="M501 0h-85v46h-6c-95 -47 -143 -56 -187 -56c-81 0 -124 35 -124 119v422h89v-400c0 -41 10 -59 66 -59c48 0 100 12 158 43v416h89v-531z" />
    <glyph glyph-name="v" unicode="v" horiz-adv-x="513" 
d="M477 531l-170 -531h-102l-169 531h91l116 -372c7 -23 13 -58 13 -70h6c0 12 6 48 13 70l114 372h88z" />
    <glyph glyph-name="w" unicode="w" horiz-adv-x="793" 
d="M746 531l-128 -531h-94l-113 361c-7 22 -14 52 -14 62h-6c0 -10 -6 -40 -13 -62l-112 -361h-93l-127 531h90l80 -362c6 -28 9 -49 9 -65h6c1 16 5 35 14 65l105 340h95l105 -340c8 -25 15 -50 15 -65h6c0 15 4 39 10 65l82 362h83z" />
    <glyph glyph-name="x" unicode="x" horiz-adv-x="519" 
d="M381 0l-94 168c-9 15 -21 37 -27 55h-5c-5 -18 -19 -41 -27 -55l-99 -168h-95l163 273l-159 258h100l92 -153c14 -24 25 -45 29 -61h5c5 16 22 46 32 62l92 152h92l-159 -259l163 -272h-103z" />
    <glyph glyph-name="y" unicode="y" horiz-adv-x="519" 
d="M481 531l-150 -537c-44 -158 -102 -224 -193 -224c-34 0 -57 7 -114 26l23 75c47 -19 82 -23 98 -23c30 0 52 15 75 82l23 70h-27l-180 531h92l130 -385c8 -25 13 -53 13 -65h6c0 12 5 42 11 64l105 386h88z" />
    <glyph glyph-name="z" unicode="z" horiz-adv-x="511" 
d="M446 0h-390v84l291 372h-259l-6 75h365v-84l-292 -372h281z" />
    <glyph glyph-name="braceleft" unicode="{" horiz-adv-x="345" 
d="M295 -65v-74h-66c-115 0 -161 45 -161 116c0 95 124 160 124 230c0 39 -24 52 -81 52h-49v76h49c59 0 81 14 81 52c0 70 -124 135 -124 229c0 68 42 117 161 117h66v-74h-68c-57 0 -70 -17 -70 -51c0 -58 124 -129 124 -217c0 -50 -28 -83 -99 -91v-6
c71 -8 99 -41 99 -91c0 -86 -124 -159 -124 -217c0 -34 12 -51 70 -51h68z" />
    <glyph glyph-name="bar" unicode="|" horiz-adv-x="274" 
d="M174 -220h-74v988h74v-988z" />
    <glyph glyph-name="braceright" unicode="}" horiz-adv-x="345" 
d="M50 659v74h66c115 0 161 -45 161 -116c0 -95 -124 -160 -124 -230c0 -39 24 -52 81 -52h49v-76h-49c-59 0 -81 -14 -81 -52c0 -70 124 -135 124 -229c0 -68 -42 -117 -161 -117h-66v74h68c57 0 70 17 70 51c0 58 -124 129 -124 217c0 50 28 83 99 91v6
c-71 8 -99 41 -99 91c0 86 124 159 124 217c0 34 -12 51 -70 51h-68z" />
    <glyph glyph-name="asciitilde" unicode="~" horiz-adv-x="519" 
d="M458 344v-83c-40 -38 -69 -50 -108 -50c-66 0 -119 56 -179 56c-43 0 -74 -17 -111 -53v83c36 35 68 47 111 47c66 0 119 -56 179 -56c42 0 69 19 108 56z" />
    <glyph glyph-name="exclamdown" unicode="&#xa1;" horiz-adv-x="303" 
d="M107 61l10 243h69c3 -79 10 -243 10 -243v-263h-89v263zM93 480c0 36 22 57 59 57c35 0 58 -21 58 -57c0 -35 -24 -55 -59 -55c-33 0 -58 17 -58 55z" />
    <glyph glyph-name="cent" unicode="&#xa2;" horiz-adv-x="573" 
d="M466 552l-16 -81c-57 17 -101 21 -130 21c-90 0 -137 -55 -137 -195c0 -163 51 -197 133 -197c35 0 75 5 143 30l17 -79c-45 -15 -84 -24 -116 -28v-59h-89v58c-125 13 -183 97 -183 274c0 176 74 257 183 272v59h89v-58c29 -3 64 -8 106 -17z" />
    <glyph glyph-name="sterling" unicode="&#xa3;" horiz-adv-x="573" 
d="M529 0h-460v72l115 11c0 67 -27 159 -49 254h-66v71h51c-8 43 -13 85 -13 124c0 137 76 211 223 211c44 0 104 -7 175 -25l-20 -88c-48 18 -112 27 -147 27c-100 0 -138 -40 -138 -137c0 -34 5 -72 13 -112h251v-71h-235c21 -88 46 -179 46 -254h240z" />
    <glyph glyph-name="fraction" unicode="&#x2044;" horiz-adv-x="160" 
d="M241 733l-262 -733h-60l262 733h60z" />
    <glyph glyph-name="yen" unicode="&#xa5;" horiz-adv-x="573" 
d="M436 733h99l-178 -381h125v-57h-149v-70h149v-57h-149v-168h-95v168h-150v57h150v70h-150v57h124l-175 381h101l130 -293c10 -23 15 -45 17 -61h5c2 16 8 39 18 61z" />
    <glyph glyph-name="florin" unicode="&#x192;" horiz-adv-x="573" 
d="M479 737l-6 -81c-20 4 -44 6 -58 6c-57 0 -85 -22 -85 -86v-165h149v-77h-149v-289c0 -124 -62 -184 -166 -184c-18 0 -53 3 -67 6l6 81c19 -4 40 -6 54 -6c57 0 84 22 84 86v306h-138v77h138v148c0 124 62 184 166 184c14 0 57 -3 72 -6z" />
    <glyph glyph-name="section" unicode="&#xa7;" horiz-adv-x="573" 
d="M77 320c0 92 59 143 148 157c-58 20 -87 59 -87 112c0 97 69 154 177 154c37 0 105 -4 157 -17l-15 -79c-64 19 -111 20 -137 20c-49 0 -92 -23 -92 -82c0 -98 275 -72 275 -244c0 -92 -61 -144 -148 -157c59 -22 88 -58 88 -112c0 -96 -70 -154 -178 -154
c-38 0 -105 4 -157 17l15 79c64 -19 111 -20 137 -20c49 0 92 23 92 82c0 98 -275 72 -275 244zM416 328c0 70 -47 91 -118 109c-86 -1 -134 -39 -134 -104c0 -70 50 -92 118 -109c86 1 134 40 134 104z" />
    <glyph glyph-name="currency" unicode="&#xa4;" horiz-adv-x="574" 
d="M512 81l-48 -45l-51 55c-37 -26 -83 -39 -126 -39s-89 13 -126 39l-51 -55l-48 45l52 55c-27 39 -43 88 -43 141c0 56 16 105 43 144l-52 54l48 45l51 -55c37 27 83 40 126 40s89 -13 126 -40l51 55l48 -45l-52 -54c27 -39 43 -89 43 -143c0 -55 -16 -103 -43 -142z
M435 278c0 110 -59 164 -149 164c-89 0 -148 -54 -148 -164s59 -164 148 -164c90 0 149 54 149 164z" />
    <glyph glyph-name="quotesingle" unicode="'" horiz-adv-x="221" 
d="M160 733l-10 -262h-79l-10 262h99z" />
    <glyph glyph-name="quotedblleft" unicode="&#x201c;" horiz-adv-x="406" 
d="M212 571c0 67 25 115 112 165l44 -55c-70 -36 -76 -54 -76 -92v-9h15c24 0 40 -15 40 -42c0 -32 -24 -53 -62 -53c-42 0 -73 26 -73 86zM38 571c0 67 25 115 112 165l44 -55c-70 -36 -76 -54 -76 -92v-9h15c24 0 40 -15 40 -42c0 -32 -24 -53 -62 -53
c-42 0 -73 26 -73 86z" />
    <glyph glyph-name="guillemotleft" unicode="&#xab;" horiz-adv-x="543" 
d="M271 41h-80l-144 231l144 231h80l-126 -231zM497 41h-80l-145 231l145 231h80l-126 -231z" />
    <glyph glyph-name="guilsinglleft" unicode="&#x2039;" horiz-adv-x="319" 
d="M272 41h-80l-144 231l144 231h80l-126 -231z" />
    <glyph glyph-name="guilsinglright" unicode="&#x203a;" horiz-adv-x="319" 
d="M272 272l-145 -231h-79l125 231l-125 231h79z" />
    <glyph glyph-name="fi" unicode="&#xfb01;" horiz-adv-x="645" 
d="M545 0h-89v453h-228v-453h-89v453h-75v78h75v66c0 116 59 181 167 181c13 0 36 -2 50 -6l-6 -81c-16 4 -32 5 -45 5c-52 0 -77 -19 -77 -78v-87h317v-531zM557 694c0 -34 -21 -55 -56 -55s-57 20 -57 55c0 34 22 54 57 54c32 0 56 -18 56 -54z" />
    <glyph glyph-name="fl" unicode="&#xfb02;" horiz-adv-x="660" 
d="M560 0h-89v690c-29 6 -82 12 -119 12c-95 0 -124 -31 -124 -91v-80h127v-78h-127v-453h-89v453h-75v78h75v66c0 133 76 181 213 181c65 0 149 -9 208 -18v-760z" />
    <glyph glyph-name="endash" unicode="&#x2013;" 
d="M468 228h-436v75h436v-75z" />
    <glyph glyph-name="dagger" unicode="&#x2020;" horiz-adv-x="550" 
d="M504 447h-185v-447h-90v447h-185v85h185v201h90v-201h185v-85z" />
    <glyph glyph-name="daggerdbl" unicode="&#x2021;" horiz-adv-x="550" 
d="M504 187h-185v-187h-90v187h-185v85h185v189h-185v86h185v186h90v-186h185v-86h-185v-189h185v-85z" />
    <glyph glyph-name="periodcentered" unicode="&#xb7;" horiz-adv-x="272" 
d="M196 268c0 -36 -22 -58 -60 -58c-36 0 -60 21 -60 58c0 36 24 57 60 57c34 0 60 -19 60 -57z" />
    <glyph glyph-name="paragraph" unicode="&#xb6;" horiz-adv-x="538" 
d="M460 -72h-69v664c-19 5 -51 8 -67 8v-672h-69v292h-35c-121 0 -188 53 -188 217s87 234 250 234c51 0 120 -5 178 -19v-724z" />
    <glyph glyph-name="bullet" unicode="&#x2022;" 
d="M377 138h-254v253h254v-253z" />
    <glyph glyph-name="quotesinglbase" unicode="&#x201a;" horiz-adv-x="232" 
d="M194 21c0 -67 -25 -115 -112 -165l-44 55c70 36 76 54 76 92v9h-15c-24 0 -40 15 -40 42c0 32 24 53 62 53c42 0 73 -26 73 -86z" />
    <glyph glyph-name="quotedblbase" unicode="&#x201e;" horiz-adv-x="406" 
d="M194 21c0 -67 -25 -115 -112 -165l-44 55c70 36 76 54 76 92v9h-15c-24 0 -40 15 -40 42c0 32 24 53 62 53c42 0 73 -26 73 -86zM368 21c0 -67 -25 -115 -112 -165l-44 55c70 36 76 54 76 92v9h-15c-24 0 -40 15 -40 42c0 32 24 53 62 53c42 0 73 -26 73 -86z" />
    <glyph glyph-name="quotedblright" unicode="&#x201d;" horiz-adv-x="406" 
d="M368 650c0 -67 -25 -115 -112 -165l-44 55c70 36 76 54 76 92v9h-15c-24 0 -40 15 -40 42c0 32 24 53 62 53c42 0 73 -26 73 -86zM194 650c0 -67 -25 -115 -112 -165l-44 55c70 36 76 54 76 92v9h-15c-24 0 -40 15 -40 42c0 32 24 53 62 53c42 0 73 -26 73 -86z" />
    <glyph glyph-name="guillemotright" unicode="&#xbb;" horiz-adv-x="543" 
d="M497 272l-145 -231h-80l127 231l-127 231h80zM271 272l-145 -231h-79l126 231l-126 231h79z" />
    <glyph glyph-name="ellipsis" unicode="&#x2026;" horiz-adv-x="705" 
d="M413 51c0 -36 -23 -58 -61 -58c-36 0 -61 22 -61 58c0 37 25 58 61 58c34 0 61 -19 61 -58zM630 51c0 -36 -23 -58 -61 -58c-36 0 -61 22 -61 58c0 37 25 58 61 58c34 0 61 -19 61 -58zM197 51c0 -36 -23 -58 -61 -58c-36 0 -61 22 -61 58c0 37 25 58 61 58
c34 0 61 -19 61 -58z" />
    <glyph glyph-name="perthousand" unicode="&#x2030;" horiz-adv-x="1208" 
d="M591 661l-262 -661h-63l263 661h62zM354 471c0 -144 -60 -200 -151 -200c-87 0 -151 51 -151 200c0 154 70 200 152 200c85 0 150 -49 150 -200zM280 471c0 106 -21 142 -77 142c-52 0 -76 -29 -76 -142c0 -112 23 -142 76 -142c51 0 77 29 77 142zM805 190
c0 -144 -61 -200 -152 -200c-87 0 -151 51 -151 200c0 154 70 200 152 200c86 0 151 -49 151 -200zM730 190c0 106 -20 142 -76 142c-53 0 -77 -29 -77 -142c0 -112 23 -142 76 -142c51 0 77 29 77 142zM1156 190c0 -144 -60 -200 -151 -200c-87 0 -151 51 -151 200
c0 154 70 200 152 200c86 0 150 -49 150 -200zM1082 190c0 106 -21 142 -77 142c-52 0 -77 -29 -77 -142c0 -112 24 -142 77 -142c51 0 77 29 77 142z" />
    <glyph glyph-name="questiondown" unicode="&#xbf;" horiz-adv-x="458" 
d="M50 -33c0 106 58 161 205 201l-17 136h74l37 -191c-161 -34 -209 -64 -209 -138s43 -102 129 -102c41 0 89 7 124 18l12 -84c-45 -13 -92 -19 -136 -19c-139 0 -219 56 -219 179zM208 481c0 35 22 55 60 55c35 0 58 -19 58 -55s-24 -56 -59 -56c-33 0 -59 18 -59 56z" />
    <glyph glyph-name="grave" unicode="`" 
d="M351 582h-79l-124 151h108l95 -142v-9z" />
    <glyph glyph-name="acute" unicode="&#xb4;" 
d="M243 733h108l-124 -151h-79v9z" />
    <glyph glyph-name="circumflex" unicode="&#x2c6;" 
d="M403 582h-79l-76 117l-75 -117h-77v9l90 142h127l90 -142v-9z" />
    <glyph glyph-name="tilde" unicode="&#x2dc;" 
d="M425 705c-14 -108 -51 -127 -94 -127c-17 0 -39 4 -60 18l-56 37c-13 8 -21 11 -32 11c-21 0 -36 -15 -41 -62h-68c15 108 51 127 94 127c19 0 39 -4 60 -18l56 -37c16 -9 22 -11 32 -11c22 0 35 12 41 62h68z" />
    <glyph glyph-name="macron" unicode="&#xaf;" 
d="M374 624h-247v78h247v-78z" />
    <glyph glyph-name="breve" unicode="&#x2d8;" 
d="M337 733h67c-15 -112 -68 -155 -155 -155s-140 40 -155 155h69c7 -62 31 -90 87 -90c55 0 78 28 87 90z" />
    <glyph glyph-name="dotaccent" unicode="&#x2d9;" 
d="M306 659c0 -35 -21 -55 -56 -55s-57 20 -57 55c0 34 22 53 57 53c32 0 56 -17 56 -53z" />
    <glyph glyph-name="dieresis" unicode="&#xa8;" 
d="M204 654c0 -32 -18 -50 -48 -50s-49 17 -49 50c0 32 18 49 49 49c28 0 48 -15 48 -49zM393 654c0 -32 -18 -50 -48 -50s-49 17 -49 50c0 32 18 49 49 49c28 0 48 -15 48 -49z" />
    <glyph glyph-name="ring" unicode="&#x2da;" 
d="M366 669c0 -56 -35 -90 -115 -90s-116 33 -116 90s39 90 116 90c74 0 115 -31 115 -90zM303 669c0 34 -21 49 -52 49c-33 0 -53 -15 -53 -49s20 -49 53 -49c31 0 52 14 52 49z" />
    <glyph glyph-name="cedilla" unicode="&#xb8;" 
d="M345 -138c0 -52 -29 -82 -98 -82c-28 0 -58 3 -92 10l11 55c30 -8 58 -12 78 -12c29 0 37 10 37 33c0 24 -12 31 -83 48l24 98h49l-16 -64c71 -20 90 -41 90 -86z" />
    <glyph glyph-name="hungarumlaut" unicode="&#x2dd;" 
d="M67 582v9l92 142h102l-121 -151h-73zM252 582v9l92 142h101l-120 -151h-73z" />
    <glyph glyph-name="ogonek" unicode="&#x2db;" 
d="M305 35l47 -10c-115 -87 -129 -111 -129 -146c0 -31 18 -42 48 -42c11 0 26 2 51 10l10 -54c-27 -9 -56 -13 -75 -13c-60 0 -108 22 -108 89c0 61 33 87 156 166z" />
    <glyph glyph-name="caron" unicode="&#x2c7;" 
d="M97 733h78l77 -118l74 118h77v-9l-89 -142h-127l-90 142v9z" />
    <glyph glyph-name="emdash" unicode="&#x2014;" horiz-adv-x="1000" 
d="M968 228h-936v75h936v-75z" />
    <glyph glyph-name="AE" unicode="&#xc6;" horiz-adv-x="905" 
d="M842 0h-406v328h-221l-95 -328h-99l220 733h591v-85h-296v-236h280v-84h-280v-243h297zM436 409v239h-126l-74 -239h200z" />
    <glyph glyph-name="ordfeminine" unicode="&#xaa;" horiz-adv-x="404" 
d="M330 373h-59l-3 21h-4c-58 -22 -91 -29 -120 -29c-61 0 -97 32 -97 98c0 61 39 95 99 101l119 12v75c0 21 -12 31 -38 31s-88 -8 -139 -24l-15 60c65 19 129 25 161 25c62 0 96 -22 96 -80v-290zM265 436v94l-132 -13c-12 -13 -18 -33 -18 -51c0 -36 13 -51 57 -51
c28 0 52 7 93 21z" />
    <glyph glyph-name="Lslash" unicode="&#x141;" horiz-adv-x="533" 
d="M518 0h-410v314l-60 -24v84l60 24v335h101v-294l89 37v-84l-89 -37v-268h299z" />
    <glyph glyph-name="Oslash" unicode="&#xd8;" horiz-adv-x="718" 
d="M650 366c0 -265 -108 -376 -291 -376c-73 0 -134 16 -181 54l-55 -89h-44l72 115c-53 59 -82 154 -82 294c0 271 114 379 290 379c72 0 133 -17 180 -55l57 90h43l-73 -116c54 -60 84 -155 84 -296zM545 366c0 96 -12 163 -34 208l-282 -449c32 -39 76 -51 130 -51
c112 0 186 51 186 292zM174 366c0 -96 11 -162 33 -207l282 449c-31 38 -76 51 -130 51c-119 0 -185 -59 -185 -293z" />
    <glyph glyph-name="OE" unicode="&#x152;" horiz-adv-x="1025" 
d="M962 0h-411v105h-3c-38 -80 -109 -115 -195 -115c-180 0 -284 103 -284 374c0 267 108 379 284 379c88 0 158 -33 195 -114h3v104h401v-85h-314v-236h299v-84h-299v-243h315zM175 366c0 -237 71 -292 184 -292c110 0 184 49 184 292c0 234 -66 292 -184 292
c-119 0 -184 -58 -184 -292z" />
    <glyph glyph-name="ordmasculine" unicode="&#xba;" horiz-adv-x="439" 
d="M392 554c0 -135 -73 -189 -173 -189s-172 52 -172 189c0 135 72 189 173 189c96 0 172 -47 172 -189zM314 554c0 113 -41 133 -94 133c-59 0 -95 -23 -95 -133c0 -106 35 -133 94 -133c61 0 95 26 95 133z" />
    <glyph glyph-name="ae" unicode="&#xe6;" horiz-adv-x="820" 
d="M758 337c0 -18 0 -32 -3 -74l-308 -26c0 -139 49 -167 128 -167c28 0 71 6 155 33l16 -79c-83 -24 -132 -34 -170 -34c-76 0 -132 22 -166 64c-124 -58 -172 -64 -214 -64c-87 0 -135 46 -135 140c0 93 58 136 130 143l168 16v126c0 31 -14 46 -53 46
c-43 0 -129 -16 -193 -36l-18 78c105 30 177 38 222 38c61 0 96 -18 106 -74c31 50 85 74 145 74c111 0 190 -60 190 -204zM670 352c0 86 -39 122 -103 122c-73 0 -119 -44 -119 -180l221 22c1 12 1 24 1 36zM386 98c-17 32 -25 75 -25 121v13l-185 -18
c-20 -21 -27 -53 -27 -78c0 -56 22 -78 82 -78c35 0 82 9 155 40z" />
    <glyph glyph-name="dotlessi" unicode="&#x131;" horiz-adv-x="289" 
d="M189 0h-89v531h89v-531z" />
    <glyph glyph-name="lslash" unicode="&#x142;" horiz-adv-x="289" 
d="M189 0h-89v332l-46 -25v85l46 25v348l89 13v-312l46 26v-85l-46 -26v-381z" />
    <glyph glyph-name="oslash" unicode="&#xf8;" horiz-adv-x="580" 
d="M517 265c0 -197 -88 -275 -227 -275c-49 0 -91 10 -125 30l-54 -92h-40l66 112c-48 43 -74 115 -74 225c0 203 92 276 228 276c46 0 88 -9 123 -30l55 93h39l-66 -113c46 -41 75 -113 75 -226zM422 265c0 71 -10 118 -26 148l-191 -324c21 -18 50 -25 85 -25
c86 0 132 41 132 201zM158 265c0 -69 8 -116 25 -147l190 324c-22 19 -50 25 -83 25c-83 0 -132 -38 -132 -202z" />
    <glyph glyph-name="oe" unicode="&#x153;" horiz-adv-x="885" 
d="M810 25c-80 -24 -132 -35 -170 -35c-92 0 -144 32 -177 105c-34 -77 -93 -105 -173 -105c-136 0 -227 77 -227 275c0 202 91 276 228 276c79 0 143 -29 177 -111c30 75 83 111 165 111c120 0 189 -69 189 -204c0 -17 -1 -52 -3 -85c0 0 -205 -5 -308 -7
c0 -138 41 -175 129 -175c31 0 69 7 154 34zM422 265c0 169 -55 202 -132 202c-83 0 -132 -38 -132 -202c0 -159 48 -201 132 -201c87 0 132 41 132 201zM734 308c1 19 1 37 1 43c0 85 -38 124 -104 124c-72 0 -116 -41 -119 -171c74 1 222 4 222 4z" />
    <glyph glyph-name="germandbls" unicode="&#xdf;" horiz-adv-x="573" 
d="M529 136c0 -91 -57 -146 -152 -146c-31 0 -64 4 -132 25l17 78c70 -25 85 -27 110 -27c42 0 70 23 70 69c0 89 -190 109 -190 237c0 107 143 165 143 251c0 51 -20 77 -103 77s-111 -23 -111 -104v-596h-89v592c0 116 44 186 203 186c125 0 190 -48 190 -147
c0 -111 -145 -171 -145 -250c0 -85 189 -107 189 -245z" />
    <glyph glyph-name="Zcaron" unicode="&#x17d;" horiz-adv-x="583" 
d="M530 0h-478v97l372 551h-340l-10 85h453v-97l-373 -551h369zM350 768h-121l-79 107v10h75l66 -88l64 88h73v-10z" />
    <glyph glyph-name="zcaron" unicode="&#x17e;" horiz-adv-x="511" 
d="M446 0h-390v84l291 372h-259l-6 75h365v-84l-292 -372h281zM104 733h78l77 -118l74 118h77v-9l-89 -142h-127l-90 142v9z" />
    <glyph glyph-name="Euro" unicode="&#x20ac;" horiz-adv-x="573" 
d="M525 26c-70 -29 -114 -36 -158 -36c-168 0 -235 74 -252 261h-58v59h55c-1 18 -1 38 -1 58c0 23 0 46 1 67h-55v58h60c21 176 95 250 244 250c49 0 92 -6 160 -29l-26 -84c-58 24 -91 30 -131 30c-85 0 -135 -32 -151 -167h270l-7 -58h-268c-1 -21 -1 -43 -1 -67
c0 -21 0 -40 1 -58h275l-7 -59h-265c15 -152 65 -178 162 -178c36 0 67 6 133 37z" />
    <glyph glyph-name="Scaron" unicode="&#x160;" horiz-adv-x="582" 
d="M522 199c0 -141 -102 -209 -235 -209c-59 0 -109 5 -217 39l25 88c124 -36 153 -40 202 -40c82 0 125 42 125 116c0 57 -27 85 -90 110l-117 47c-101 40 -149 95 -149 185c0 128 96 208 239 208c48 0 99 -5 183 -25l-21 -88c-89 21 -129 26 -170 26
c-80 0 -130 -36 -130 -116c0 -51 24 -78 90 -103l117 -45c95 -37 148 -92 148 -193zM359 768h-121l-79 107v10h75l66 -88l64 88h73v-10z" />
    <glyph glyph-name="trademark" unicode="&#x2122;" horiz-adv-x="844" 
d="M316 677h-109v-304h-60v304h-106v56h275v-56zM778 373h-58l-14 240c-1 13 -1 28 -1 44h-5c-2 -12 -8 -34 -12 -44l-89 -240h-61l-91 240c-5 12 -9 31 -10 44h-5c0 -17 0 -31 -1 -44l-15 -240h-56l26 360h72l99 -256c6 -16 10 -34 11 -46h5c1 12 5 30 11 46l95 256h74z
" />
    <glyph glyph-name="scaron" unicode="&#x161;" horiz-adv-x="468" 
d="M411 149c0 -106 -74 -159 -183 -159c-39 0 -79 5 -167 29l18 77c98 -27 126 -31 157 -31c53 0 88 21 88 72c0 44 -19 61 -82 85l-81 31c-60 22 -94 59 -94 121c0 108 79 167 187 167c31 0 79 -4 139 -15l-16 -79c-77 16 -101 19 -130 19c-52 0 -93 -23 -93 -80
c0 -39 15 -48 80 -74l83 -32c55 -21 94 -61 94 -131zM100 733h78l77 -118l74 118h77v-9l-89 -142h-127l-90 142v9z" />
    <glyph glyph-name="Ydieresis" unicode="&#x178;" horiz-adv-x="539" 
d="M526 733l-207 -442v-291h-100v292l-207 441h105l131 -280c10 -22 19 -51 20 -67h6c2 16 11 45 21 67l128 280h103zM227 814c0 -29 -18 -46 -48 -46c-29 0 -47 16 -47 46c0 29 18 44 48 44c26 0 47 -14 47 -44zM412 814c0 -29 -17 -46 -47 -46c-29 0 -48 16 -48 46
c0 29 19 44 48 44c27 0 47 -14 47 -44z" />
    <glyph glyph-name="uni00A0" unicode="&#xa0;" horiz-adv-x="206" 
 />
    <glyph glyph-name="brokenbar" unicode="&#xa6;" horiz-adv-x="274" 
d="M174 0h-74v301h74v-301zM174 432h-74v301h74v-301z" />
    <glyph glyph-name="copyright" unicode="&#xa9;" horiz-adv-x="753" 
d="M705 366c0 -215 -111 -376 -328 -376s-329 160 -329 376c0 223 118 377 329 377c209 0 328 -152 328 -377zM655 366c0 198 -100 329 -278 329c-191 0 -279 -133 -279 -329c0 -188 88 -328 279 -328c188 0 278 130 278 328zM499 199c-44 -17 -80 -21 -103 -21
c-112 0 -161 51 -161 186c0 134 57 185 157 185c28 0 57 -4 99 -16l-13 -54c-34 11 -62 16 -85 16c-60 0 -94 -23 -94 -130c0 -113 37 -133 98 -133c20 0 45 3 90 21z" />
    <glyph glyph-name="logicalnot" unicode="&#xac;" horiz-adv-x="573" 
d="M514 112h-85v189h-371v80h456v-269z" />
    <glyph glyph-name="minus" unicode="&#x2212;" 
d="M440 233h-380v67h380v-67z" />
    <glyph glyph-name="registered" unicode="&#xae;" horiz-adv-x="455" 
d="M405 553c0 -112 -65 -189 -177 -189c-113 0 -178 77 -178 189c0 115 67 190 177 190c108 0 178 -72 178 -190zM371 553c-1 102 -51 159 -143 159c-99 0 -144 -61 -144 -159c0 -92 42 -159 144 -159c97 0 143 60 143 159zM302 492v-25c-6 -1 -9 -1 -15 -1
c-14 0 -21 3 -29 18l-25 49h-35v-66h-33v170h71c34 0 57 -14 57 -50c0 -24 -11 -39 -30 -46l23 -44c3 -4 5 -5 11 -5h5zM261 586c0 18 -7 26 -27 26h-36v-55h35c18 0 28 9 28 29z" />
    <glyph glyph-name="degree" unicode="&#xb0;" horiz-adv-x="391" 
d="M347 600c0 -93 -60 -143 -152 -143c-93 0 -151 50 -151 142c0 94 59 144 150 144c95 0 153 -50 153 -143zM277 600c0 52 -28 85 -83 85c-52 0 -80 -33 -80 -85c0 -50 26 -86 81 -86c53 0 82 34 82 86z" />
    <glyph glyph-name="plusminus" unicode="&#xb1;" horiz-adv-x="519" 
d="M457 73v-73h-396v73h396zM221 109v173h-160v74h160v175h77v-175h159v-74h-159v-173h-77z" />
    <glyph glyph-name="twosuperior" unicode="&#xb2;" horiz-adv-x="405" 
d="M343 520h-277v57c166 132 196 173 196 235c0 59 -33 84 -90 84c-28 0 -60 -5 -94 -17l-10 60c40 11 81 16 112 16c100 0 151 -48 151 -138c0 -67 -23 -113 -171 -235v-3h180z" />
    <glyph glyph-name="threesuperior" unicode="&#xb3;" horiz-adv-x="405" 
d="M330 634c0 -75 -55 -124 -156 -124c-35 0 -72 4 -124 17l11 59c47 -14 85 -20 114 -20c59 0 86 23 86 71s-28 68 -89 68h-71v56h74c51 0 84 16 84 70c0 48 -25 68 -80 68c-30 0 -65 -5 -106 -17l-8 56c50 13 87 17 121 17c90 0 141 -38 141 -117c0 -49 -20 -84 -72 -100
v-4c50 -12 75 -45 75 -100z" />
    <glyph glyph-name="mu" unicode="&#xb5;" horiz-adv-x="602" 
d="M501 0h-85v46h-6c-78 -46 -123 -52 -158 -52c-26 0 -47 4 -64 14v-228h-89v751h89v-400c0 -41 10 -59 66 -59c48 0 100 12 158 43v416h89v-531z" />
    <glyph glyph-name="onesuperior" unicode="&#xb9;" horiz-adv-x="405" 
d="M356 520h-285v59h123v308l-115 -20l-5 54l120 24h64v-366h98v-59z" />
    <glyph glyph-name="onequarter" unicode="&#xbc;" horiz-adv-x="970" 
d="M356 308h-285v59h123v308l-115 -20l-5 54l120 24h64v-366h98v-59zM646 733l-262 -733h-60l262 733h60zM927 89h-54v-89h-64v89h-193v70c89 123 130 189 152 266h68c-22 -76 -67 -153 -163 -282h138l16 120h46v-118h54v-56z" />
    <glyph glyph-name="onehalf" unicode="&#xbd;" horiz-adv-x="970" 
d="M356 308h-285v59h123v308l-115 -20l-5 54l120 24h64v-366h98v-59zM908 0h-277v57c166 132 196 173 196 235c0 59 -33 84 -90 84c-28 0 -60 -5 -94 -17l-10 60c40 11 81 16 112 16c100 0 151 -48 151 -138c0 -67 -23 -113 -171 -235v-3h180zM646 733l-262 -733h-60
l262 733h60z" />
    <glyph glyph-name="threequarters" unicode="&#xbe;" horiz-adv-x="970" 
d="M646 733l-262 -733h-60l262 733h60zM330 422c0 -75 -55 -124 -156 -124c-35 0 -72 4 -124 17l11 59c47 -14 85 -20 114 -20c59 0 86 23 86 71s-28 68 -89 68h-71v56h74c51 0 84 16 84 70c0 48 -25 68 -80 68c-30 0 -65 -5 -106 -17l-8 56c50 13 87 17 121 17
c90 0 141 -38 141 -117c0 -49 -20 -84 -72 -100v-4c50 -12 75 -45 75 -100zM927 89h-54v-89h-64v89h-193v70c89 123 130 189 152 266h68c-22 -76 -67 -153 -163 -282h138l16 120h46v-118h54v-56z" />
    <glyph glyph-name="Agrave" unicode="&#xc0;" horiz-adv-x="631" 
d="M608 0h-104l-64 213h-252l-65 -213h-101l228 733h133zM209 293h211l-89 292c-7 23 -12 54 -12 69h-8c0 -15 -6 -46 -13 -69zM356 768h-79l-105 117h100l84 -108v-9z" />
    <glyph glyph-name="Aacute" unicode="&#xc1;" horiz-adv-x="631" 
d="M608 0h-104l-64 213h-252l-65 -213h-101l228 733h133zM209 293h211l-89 292c-7 23 -12 54 -12 69h-8c0 -15 -6 -46 -13 -69zM353 768h-79v9l84 108h101z" />
    <glyph glyph-name="Acircumflex" unicode="&#xc2;" horiz-adv-x="631" 
d="M608 0h-104l-64 213h-252l-65 -213h-101l228 733h133zM209 293h211l-89 292c-7 23 -12 54 -12 69h-8c0 -15 -6 -46 -13 -69zM453 768h-75l-66 87l-64 -87h-73v9l78 108h121l79 -108v-9z" />
    <glyph glyph-name="Atilde" unicode="&#xc3;" horiz-adv-x="631" 
d="M608 0h-104l-64 213h-252l-65 -213h-101l228 733h133zM209 293h211l-89 292c-7 23 -12 54 -12 69h-8c0 -15 -6 -46 -13 -69zM476 870c-12 -86 -47 -104 -86 -104c-18 0 -39 5 -55 14l-50 29c-11 6 -18 9 -28 9c-19 0 -30 -11 -37 -50h-63c12 84 46 104 86 104
c21 0 39 -5 55 -14l50 -29c12 -7 19 -9 28 -9c18 0 29 9 37 50h63z" />
    <glyph glyph-name="Adieresis" unicode="&#xc4;" horiz-adv-x="631" 
d="M272 814c0 -29 -18 -46 -48 -46c-29 0 -47 16 -47 46c0 29 18 44 48 44c26 0 47 -14 47 -44zM457 814c0 -29 -17 -46 -47 -46c-29 0 -48 16 -48 46c0 29 19 44 48 44c27 0 47 -14 47 -44zM608 0h-104l-64 213h-252l-65 -213h-101l228 733h133zM209 293h211l-89 292
c-7 23 -12 54 -12 69h-8c0 -15 -6 -46 -13 -69z" />
    <glyph glyph-name="Aring" unicode="&#xc5;" horiz-adv-x="631" 
d="M427 841c0 -51 -34 -81 -111 -81s-110 30 -110 81c0 53 37 81 111 81c72 0 110 -27 110 -81zM367 841c0 32 -19 43 -50 43c-33 0 -51 -11 -51 -43s18 -42 51 -42c30 0 50 10 50 42zM608 0h-104l-64 213h-252l-65 -213h-101l228 733h133zM209 293h211l-89 292
c-7 23 -12 54 -12 69h-8c0 -15 -6 -46 -13 -69z" />
    <glyph glyph-name="Ccedilla" unicode="&#xc7;" horiz-adv-x="590" 
d="M442 -138c0 -52 -29 -82 -98 -82c-28 0 -58 3 -92 10l11 55c30 -8 58 -12 78 -12c29 0 37 10 37 33c0 24 -12 31 -83 48l19 79c-171 18 -245 134 -245 375c0 268 103 375 288 375c53 0 100 -8 186 -34l-23 -91c-69 26 -117 37 -158 37c-115 0 -188 -48 -188 -287
c0 -249 77 -290 195 -290c36 0 81 10 167 47l22 -90c-91 -37 -144 -45 -192 -45h-4l-10 -42c71 -20 90 -41 90 -86z" />
    <glyph glyph-name="Egrave" unicode="&#xc8;" horiz-adv-x="595" 
d="M532 0h-424v733h414v-85h-314v-236h299v-84h-299v-243h316zM356 768h-79l-105 117h100l84 -108v-9z" />
    <glyph glyph-name="Eacute" unicode="&#xc9;" horiz-adv-x="595" 
d="M323 768h-79v9l84 108h101zM532 0h-424v733h414v-85h-314v-236h299v-84h-299v-243h316z" />
    <glyph glyph-name="Ecircumflex" unicode="&#xca;" horiz-adv-x="595" 
d="M532 0h-424v733h414v-85h-314v-236h299v-84h-299v-243h316zM449 768h-75l-66 87l-64 -87h-73v9l78 108h121l79 -108v-9z" />
    <glyph glyph-name="Edieresis" unicode="&#xcb;" horiz-adv-x="595" 
d="M532 0h-424v733h414v-85h-314v-236h299v-84h-299v-243h316zM268 814c0 -29 -18 -46 -48 -46c-29 0 -47 16 -47 46c0 29 18 44 48 44c26 0 47 -14 47 -44zM453 814c0 -29 -17 -46 -47 -46c-29 0 -48 16 -48 46c0 29 19 44 48 44c27 0 47 -14 47 -44z" />
    <glyph glyph-name="Igrave" unicode="&#xcc;" horiz-adv-x="317" 
d="M209 768h-79l-105 117h100l84 -108v-9zM209 0h-101v733h101v-733z" />
    <glyph glyph-name="Iacute" unicode="&#xcd;" horiz-adv-x="317" 
d="M187 768h-79v9l84 108h101zM209 0h-101v733h101v-733z" />
    <glyph glyph-name="Icircumflex" unicode="&#xce;" horiz-adv-x="317" 
d="M293 768h-73l-64 88l-62 -88h-70v9l75 109h117l77 -109v-9zM209 0h-101v733h101v-733z" />
    <glyph glyph-name="Idieresis" unicode="&#xcf;" horiz-adv-x="317" 
d="M116 814c0 -29 -18 -46 -47 -46c-28 0 -45 16 -45 46c0 29 17 44 46 44c25 0 46 -14 46 -44zM295 814c0 -29 -16 -46 -45 -46c-28 0 -47 16 -47 46c0 29 19 44 47 44c26 0 45 -14 45 -44zM209 0h-101v733h101v-733z" />
    <glyph glyph-name="Eth" unicode="&#xd0;" horiz-adv-x="715" 
d="M647 380c0 -264 -118 -380 -318 -380h-221v326h-86v82h86v325h219c184 0 320 -79 320 -353zM336 326h-128v-243h120c139 0 213 62 213 295c0 226 -86 272 -210 272h-123v-242h128v-82z" />
    <glyph glyph-name="Ntilde" unicode="&#xd1;" horiz-adv-x="735" 
d="M626 0h-104l-286 515c-15 27 -26 55 -34 80h-6c2 -26 4 -52 4 -80v-515h-93v733h111l280 -503c13 -23 24 -48 34 -77h6c-2 26 -3 53 -3 77v503h91v-733zM533 870c-12 -86 -47 -104 -86 -104c-18 0 -39 5 -55 14l-50 29c-11 6 -18 9 -28 9c-19 0 -30 -11 -37 -50h-63
c12 84 46 104 86 104c21 0 39 -5 55 -14l50 -29c12 -7 19 -9 28 -9c18 0 29 9 37 50h63z" />
    <glyph glyph-name="Ograve" unicode="&#xd2;" horiz-adv-x="718" 
d="M650 366c0 -265 -108 -376 -291 -376c-180 0 -290 103 -290 374s114 379 290 379c179 0 291 -104 291 -377zM545 366c0 234 -69 293 -186 293c-119 0 -185 -59 -185 -293c0 -237 72 -292 185 -292c112 0 186 51 186 292zM397 768h-79l-105 117h100l84 -108v-9z" />
    <glyph glyph-name="Oacute" unicode="&#xd3;" horiz-adv-x="718" 
d="M650 366c0 -265 -108 -376 -291 -376c-180 0 -290 103 -290 374s114 379 290 379c179 0 291 -104 291 -377zM545 366c0 234 -69 293 -186 293c-119 0 -185 -59 -185 -293c0 -237 72 -292 185 -292c112 0 186 51 186 292zM396 768h-79v9l84 108h101z" />
    <glyph glyph-name="Ocircumflex" unicode="&#xd4;" horiz-adv-x="718" 
d="M650 366c0 -265 -108 -376 -291 -376c-180 0 -290 103 -290 374s114 379 290 379c179 0 291 -104 291 -377zM545 366c0 234 -69 293 -186 293c-119 0 -185 -59 -185 -293c0 -237 72 -292 185 -292c112 0 186 51 186 292zM496 768h-75l-66 87l-64 -87h-73v9l78 108h121
l79 -108v-9z" />
    <glyph glyph-name="Otilde" unicode="&#xd5;" horiz-adv-x="718" 
d="M650 366c0 -265 -108 -376 -291 -376c-180 0 -290 103 -290 374s114 379 290 379c179 0 291 -104 291 -377zM545 366c0 234 -69 293 -186 293c-119 0 -185 -59 -185 -293c0 -237 72 -292 185 -292c112 0 186 51 186 292zM518 870c-12 -86 -47 -104 -86 -104
c-18 0 -39 5 -55 14l-50 29c-11 6 -18 9 -28 9c-19 0 -30 -11 -37 -50h-63c12 84 46 104 86 104c21 0 39 -5 55 -14l50 -29c12 -7 19 -9 28 -9c18 0 29 9 37 50h63z" />
    <glyph glyph-name="Odieresis" unicode="&#xd6;" horiz-adv-x="718" 
d="M312 814c0 -29 -18 -46 -48 -46c-29 0 -47 16 -47 46c0 29 18 44 48 44c26 0 47 -14 47 -44zM497 814c0 -29 -17 -46 -47 -46c-29 0 -48 16 -48 46c0 29 19 44 48 44c27 0 47 -14 47 -44zM650 366c0 -265 -108 -376 -291 -376c-180 0 -290 103 -290 374s114 379 290 379
c179 0 291 -104 291 -377zM545 366c0 234 -69 293 -186 293c-119 0 -185 -59 -185 -293c0 -237 72 -292 185 -292c112 0 186 51 186 292z" />
    <glyph glyph-name="multiply" unicode="&#xd7;" horiz-adv-x="519" 
d="M461 120l-54 -54l-148 148l-147 -148l-54 54l147 148l-146 146l53 55l147 -147l147 147l54 -55l-147 -146z" />
    <glyph glyph-name="Ugrave" unicode="&#xd9;" horiz-adv-x="726" 
d="M622 249c0 -186 -96 -259 -261 -259c-161 0 -258 62 -258 259v484h100v-484c0 -124 38 -172 159 -172c116 0 163 48 163 172v484h97v-484zM410 768h-79l-105 117h100l84 -108v-9z" />
    <glyph glyph-name="Uacute" unicode="&#xda;" horiz-adv-x="726" 
d="M622 249c0 -186 -96 -259 -261 -259c-161 0 -258 62 -258 259v484h100v-484c0 -124 38 -172 159 -172c116 0 163 48 163 172v484h97v-484zM394 768h-79v9l84 108h101z" />
    <glyph glyph-name="Ucircumflex" unicode="&#xdb;" horiz-adv-x="726" 
d="M622 249c0 -186 -96 -259 -261 -259c-161 0 -258 62 -258 259v484h100v-484c0 -124 38 -172 159 -172c116 0 163 48 163 172v484h97v-484zM504 768h-75l-66 87l-64 -87h-73v9l78 108h121l79 -108v-9z" />
    <glyph glyph-name="Udieresis" unicode="&#xdc;" horiz-adv-x="726" 
d="M323 814c0 -29 -18 -46 -48 -46c-29 0 -47 16 -47 46c0 29 18 44 48 44c26 0 47 -14 47 -44zM508 814c0 -29 -17 -46 -47 -46c-29 0 -48 16 -48 46c0 29 19 44 48 44c27 0 47 -14 47 -44zM622 249c0 -186 -96 -259 -261 -259c-161 0 -258 62 -258 259v484h100v-484
c0 -124 38 -172 159 -172c116 0 163 48 163 172v484h97v-484z" />
    <glyph glyph-name="Yacute" unicode="&#xdd;" horiz-adv-x="539" 
d="M526 733l-207 -442v-291h-100v292l-207 441h105l131 -280c10 -22 19 -51 20 -67h6c2 16 11 45 21 67l128 280h103zM301 768h-79v9l84 108h101z" />
    <glyph glyph-name="Thorn" unicode="&#xde;" horiz-adv-x="628" 
d="M569 374c0 -169 -116 -229 -258 -229h-104v-145h-99v733h99v-136h116c153 0 246 -61 246 -223zM465 374c0 115 -65 141 -140 141h-118v-287h108c81 0 150 25 150 146z" />
    <glyph glyph-name="agrave" unicode="&#xe0;" horiz-adv-x="546" 
d="M446 0h-76l-5 39h-7c-90 -44 -132 -49 -161 -49c-87 0 -136 44 -136 140c0 95 57 136 139 145l161 18v122c0 32 -17 46 -55 46c-39 0 -118 -13 -193 -36l-18 78c89 26 167 38 222 38c86 0 129 -27 129 -115v-426zM361 92v139l-186 -19c-19 -21 -26 -49 -26 -75
c0 -56 22 -78 82 -78c27 0 67 9 130 33zM347 582h-79l-124 151h108l95 -142v-9z" />
    <glyph glyph-name="aacute" unicode="&#xe1;" horiz-adv-x="546" 
d="M446 0h-76l-5 39h-7c-90 -44 -132 -49 -161 -49c-87 0 -136 44 -136 140c0 95 57 136 139 145l161 18v122c0 32 -17 46 -55 46c-39 0 -118 -13 -193 -36l-18 78c89 26 167 38 222 38c86 0 129 -27 129 -115v-426zM361 92v139l-186 -19c-19 -21 -26 -49 -26 -75
c0 -56 22 -78 82 -78c27 0 67 9 130 33zM323 733h108l-124 -151h-79v9z" />
    <glyph glyph-name="acircumflex" unicode="&#xe2;" horiz-adv-x="546" 
d="M446 0h-76l-5 39h-7c-90 -44 -132 -49 -161 -49c-87 0 -136 44 -136 140c0 95 57 136 139 145l161 18v122c0 32 -17 46 -55 46c-39 0 -118 -13 -193 -36l-18 78c89 26 167 38 222 38c86 0 129 -27 129 -115v-426zM361 92v139l-186 -19c-19 -21 -26 -49 -26 -75
c0 -56 22 -78 82 -78c27 0 67 9 130 33zM423 582h-79l-76 117l-75 -117h-77v9l90 142h127l90 -142v-9z" />
    <glyph glyph-name="atilde" unicode="&#xe3;" horiz-adv-x="546" 
d="M446 0h-76l-5 39h-7c-90 -44 -132 -49 -161 -49c-87 0 -136 44 -136 140c0 95 57 136 139 145l161 18v122c0 32 -17 46 -55 46c-39 0 -118 -13 -193 -36l-18 78c89 26 167 38 222 38c86 0 129 -27 129 -115v-426zM361 92v139l-186 -19c-19 -21 -26 -49 -26 -75
c0 -56 22 -78 82 -78c27 0 67 9 130 33zM442 705c-14 -108 -51 -127 -94 -127c-17 0 -39 4 -60 18l-56 37c-13 8 -21 11 -32 11c-21 0 -36 -15 -41 -62h-68c15 108 51 127 94 127c19 0 39 -4 60 -18l56 -37c16 -9 22 -11 32 -11c22 0 35 12 41 62h68z" />
    <glyph glyph-name="adieresis" unicode="&#xe4;" horiz-adv-x="546" 
d="M446 0h-76l-5 39h-7c-90 -44 -132 -49 -161 -49c-87 0 -136 44 -136 140c0 95 57 136 139 145l161 18v122c0 32 -17 46 -55 46c-39 0 -118 -13 -193 -36l-18 78c89 26 167 38 222 38c86 0 129 -27 129 -115v-426zM361 92v139l-186 -19c-19 -21 -26 -49 -26 -75
c0 -56 22 -78 82 -78c27 0 67 9 130 33zM228 654c0 -32 -18 -50 -48 -50s-49 17 -49 50c0 32 18 49 49 49c28 0 48 -15 48 -49zM417 654c0 -32 -18 -50 -48 -50s-49 17 -49 50c0 32 18 49 49 49c28 0 48 -15 48 -49z" />
    <glyph glyph-name="aring" unicode="&#xe5;" horiz-adv-x="546" 
d="M446 0h-76l-5 39h-7c-90 -44 -132 -49 -161 -49c-87 0 -136 44 -136 140c0 95 57 136 139 145l161 18v122c0 32 -17 46 -55 46c-39 0 -118 -13 -193 -36l-18 78c89 26 167 38 222 38c86 0 129 -27 129 -115v-426zM361 92v139l-186 -19c-19 -21 -26 -49 -26 -75
c0 -56 22 -78 82 -78c27 0 67 9 130 33zM393 669c0 -56 -35 -90 -115 -90s-116 33 -116 90s39 90 116 90c74 0 115 -31 115 -90zM330 669c0 34 -21 49 -52 49c-33 0 -53 -15 -53 -49s20 -49 53 -49c31 0 52 14 52 49z" />
    <glyph glyph-name="ccedilla" unicode="&#xe7;" horiz-adv-x="464" 
d="M356 -138c0 -52 -29 -82 -98 -82c-28 0 -58 3 -92 10l11 55c30 -8 58 -12 78 -12c29 0 37 10 37 33c0 24 -12 31 -83 48l19 80c-109 16 -165 102 -165 272c0 192 76 275 210 275c34 0 68 -3 134 -18l-17 -82c-54 17 -84 20 -108 20c-91 0 -124 -51 -124 -194
c0 -156 41 -197 123 -197c26 0 48 4 119 32l17 -82c-74 -24 -110 -29 -141 -30l-10 -42c71 -20 90 -41 90 -86z" />
    <glyph glyph-name="egrave" unicode="&#xe8;" horiz-adv-x="531" 
d="M456 25c-88 -26 -134 -35 -170 -35c-153 0 -223 86 -223 263c0 199 79 288 216 288c117 0 189 -65 189 -204c0 -17 -3 -86 -3 -86c-103 -2 -204 -4 -308 -7c0 -136 40 -174 129 -174c22 0 52 2 154 34zM380 308c1 18 1 37 1 43c0 85 -38 124 -104 124
c-73 0 -116 -41 -119 -171c74 2 222 4 222 4zM313 582h-79l-124 151h108l95 -142v-9z" />
    <glyph glyph-name="eacute" unicode="&#xe9;" horiz-adv-x="531" 
d="M456 25c-88 -26 -134 -35 -170 -35c-153 0 -223 86 -223 263c0 199 79 288 216 288c117 0 189 -65 189 -204c0 -17 -3 -86 -3 -86c-103 -2 -204 -4 -308 -7c0 -136 40 -174 129 -174c22 0 52 2 154 34zM380 308c1 18 1 37 1 43c0 85 -38 124 -104 124
c-73 0 -116 -41 -119 -171c74 2 222 4 222 4zM330 733h108l-124 -151h-79v9z" />
    <glyph glyph-name="ecircumflex" unicode="&#xea;" horiz-adv-x="531" 
d="M456 25c-88 -26 -134 -35 -170 -35c-153 0 -223 86 -223 263c0 199 79 288 216 288c117 0 189 -65 189 -204c0 -17 -3 -86 -3 -86c-103 -2 -204 -4 -308 -7c0 -136 40 -174 129 -174c22 0 52 2 154 34zM380 308c1 18 1 37 1 43c0 85 -38 124 -104 124
c-73 0 -116 -41 -119 -171c74 2 222 4 222 4zM429 582h-79l-76 117l-75 -117h-77v9l90 142h127l90 -142v-9z" />
    <glyph glyph-name="edieresis" unicode="&#xeb;" horiz-adv-x="531" 
d="M456 25c-88 -26 -134 -35 -170 -35c-153 0 -223 86 -223 263c0 199 79 288 216 288c117 0 189 -65 189 -204c0 -17 -3 -86 -3 -86c-103 -2 -204 -4 -308 -7c0 -136 40 -174 129 -174c22 0 52 2 154 34zM380 308c1 18 1 37 1 43c0 85 -38 124 -104 124
c-73 0 -116 -41 -119 -171c74 2 222 4 222 4zM228 654c0 -32 -18 -50 -48 -50s-49 17 -49 50c0 32 18 49 49 49c28 0 48 -15 48 -49zM417 654c0 -32 -18 -50 -48 -50s-49 17 -49 50c0 32 18 49 49 49c28 0 48 -15 48 -49z" />
    <glyph glyph-name="igrave" unicode="&#xec;" horiz-adv-x="289" 
d="M189 0h-89v531h89v-531zM189 582h-79l-124 151h108l95 -142v-9z" />
    <glyph glyph-name="iacute" unicode="&#xed;" horiz-adv-x="289" 
d="M195 733h108l-124 -151h-79v9zM189 0h-89v531h89v-531z" />
    <glyph glyph-name="icircumflex" unicode="&#xee;" horiz-adv-x="289" 
d="M189 0h-89v531h89v-531zM282 582h-71l-67 117l-67 -117h-69v9l81 142h113l80 -142v-9z" />
    <glyph glyph-name="idieresis" unicode="&#xef;" horiz-adv-x="289" 
d="M189 0h-89v531h89v-531zM107 654c0 -32 -16 -50 -45 -50s-46 17 -46 50c0 32 17 49 46 49c26 0 45 -15 45 -49zM274 654c0 -32 -17 -50 -46 -50c-28 0 -46 17 -46 50c0 32 18 49 46 49c26 0 46 -15 46 -49z" />
    <glyph glyph-name="eth" unicode="&#xf0;" horiz-adv-x="571" 
d="M508 282c0 -195 -70 -292 -225 -292c-142 0 -220 94 -220 265c0 189 90 257 225 257c22 0 53 -4 79 -12c-19 40 -44 81 -76 126l-73 -51l-31 41l74 52l-56 72l82 38c16 -21 32 -40 46 -59l70 49l31 -41l-71 -50c102 -145 145 -262 145 -395zM414 281c0 52 -7 97 -20 142
c-29 9 -68 15 -101 15c-86 0 -135 -41 -135 -182c0 -133 39 -192 126 -192c97 0 130 64 130 217z" />
    <glyph glyph-name="ntilde" unicode="&#xf1;" horiz-adv-x="604" 
d="M506 0h-89v399c0 42 -10 59 -66 59c-48 0 -103 -13 -162 -42v-416h-89v531h89v-46h7c96 46 132 56 187 56c75 0 123 -29 123 -118v-423zM478 705c-14 -108 -51 -127 -94 -127c-17 0 -39 4 -60 18l-56 37c-13 8 -21 11 -32 11c-21 0 -36 -15 -41 -62h-68
c15 108 51 127 94 127c19 0 39 -4 60 -18l56 -37c16 -9 22 -11 32 -11c22 0 35 12 41 62h68z" />
    <glyph glyph-name="ograve" unicode="&#xf2;" horiz-adv-x="580" 
d="M517 265c0 -197 -88 -275 -227 -275s-227 77 -227 275c0 203 92 276 228 276c128 0 226 -66 226 -276zM422 265c0 169 -53 202 -132 202c-83 0 -132 -38 -132 -202c0 -159 45 -201 132 -201c86 0 132 41 132 201zM329 582h-79l-124 151h108l95 -142v-9z" />
    <glyph glyph-name="oacute" unicode="&#xf3;" horiz-adv-x="580" 
d="M517 265c0 -197 -88 -275 -227 -275s-227 77 -227 275c0 203 92 276 228 276c128 0 226 -66 226 -276zM422 265c0 169 -53 202 -132 202c-83 0 -132 -38 -132 -202c0 -159 45 -201 132 -201c86 0 132 41 132 201zM344 733h108l-124 -151h-79v9z" />
    <glyph glyph-name="ocircumflex" unicode="&#xf4;" horiz-adv-x="580" 
d="M517 265c0 -197 -88 -275 -227 -275s-227 77 -227 275c0 203 92 276 228 276c128 0 226 -66 226 -276zM422 265c0 169 -53 202 -132 202c-83 0 -132 -38 -132 -202c0 -159 45 -201 132 -201c86 0 132 41 132 201zM443 582h-79l-76 117l-75 -117h-77v9l90 142h127l90 -142
v-9z" />
    <glyph glyph-name="otilde" unicode="&#xf5;" horiz-adv-x="580" 
d="M517 265c0 -197 -88 -275 -227 -275s-227 77 -227 275c0 203 92 276 228 276c128 0 226 -66 226 -276zM422 265c0 169 -53 202 -132 202c-83 0 -132 -38 -132 -202c0 -159 45 -201 132 -201c86 0 132 41 132 201zM467 705c-14 -108 -51 -127 -94 -127c-17 0 -39 4 -60 18
l-56 37c-13 8 -21 11 -32 11c-21 0 -36 -15 -41 -62h-68c15 108 51 127 94 127c19 0 39 -4 60 -18l56 -37c16 -9 22 -11 32 -11c22 0 35 12 41 62h68z" />
    <glyph glyph-name="odieresis" unicode="&#xf6;" horiz-adv-x="580" 
d="M517 265c0 -197 -88 -275 -227 -275s-227 77 -227 275c0 203 92 276 228 276c128 0 226 -66 226 -276zM422 265c0 169 -53 202 -132 202c-83 0 -132 -38 -132 -202c0 -159 45 -201 132 -201c86 0 132 41 132 201zM243 654c0 -32 -18 -50 -48 -50s-49 17 -49 50
c0 32 18 49 49 49c28 0 48 -15 48 -49zM432 654c0 -32 -18 -50 -48 -50s-49 17 -49 50c0 32 18 49 49 49c28 0 48 -15 48 -49z" />
    <glyph glyph-name="divide" unicode="&#xf7;" horiz-adv-x="519" 
d="M388 288v-41h-258v41h258zM320 74c0 -36 -23 -58 -61 -58c-35 0 -60 22 -60 58c0 37 25 58 60 58c34 0 61 -19 61 -58zM320 460c0 -36 -23 -58 -61 -58c-35 0 -60 21 -60 58c0 36 25 57 60 57c34 0 61 -19 61 -57z" />
    <glyph glyph-name="ugrave" unicode="&#xf9;" horiz-adv-x="601" 
d="M501 0h-85v46h-6c-95 -47 -143 -56 -187 -56c-81 0 -124 35 -124 119v422h89v-400c0 -41 10 -59 66 -59c48 0 100 12 158 43v416h89v-531zM347 582h-79l-124 151h108l95 -142v-9z" />
    <glyph glyph-name="uacute" unicode="&#xfa;" horiz-adv-x="601" 
d="M501 0h-85v46h-6c-95 -47 -143 -56 -187 -56c-81 0 -124 35 -124 119v422h89v-400c0 -41 10 -59 66 -59c48 0 100 12 158 43v416h89v-531zM347 733h108l-124 -151h-79v9z" />
    <glyph glyph-name="ucircumflex" unicode="&#xfb;" horiz-adv-x="601" 
d="M501 0h-85v46h-6c-95 -47 -143 -56 -187 -56c-81 0 -124 35 -124 119v422h89v-400c0 -41 10 -59 66 -59c48 0 100 12 158 43v416h89v-531zM456 582h-79l-76 117l-75 -117h-77v9l90 142h127l90 -142v-9z" />
    <glyph glyph-name="udieresis" unicode="&#xfc;" horiz-adv-x="601" 
d="M501 0h-85v46h-6c-95 -47 -143 -56 -187 -56c-81 0 -124 35 -124 119v422h89v-400c0 -41 10 -59 66 -59c48 0 100 12 158 43v416h89v-531zM256 654c0 -32 -18 -50 -48 -50s-49 17 -49 50c0 32 18 49 49 49c28 0 48 -15 48 -49zM445 654c0 -32 -18 -50 -48 -50
s-49 17 -49 50c0 32 18 49 49 49c28 0 48 -15 48 -49z" />
    <glyph glyph-name="yacute" unicode="&#xfd;" horiz-adv-x="519" 
d="M481 531l-150 -537c-44 -158 -102 -224 -193 -224c-34 0 -57 7 -114 26l23 75c47 -19 82 -23 98 -23c30 0 52 15 75 82l23 70h-27l-180 531h92l130 -385c8 -25 13 -53 13 -65h6c0 12 5 42 11 64l105 386h88zM311 733h108l-124 -151h-79v9z" />
    <glyph glyph-name="thorn" unicode="&#xfe;" horiz-adv-x="592" 
d="M529 271c0 -204 -95 -281 -208 -281c-46 0 -84 5 -132 21v-231h-89v985l89 13v-288h6c68 38 110 51 151 51c115 0 183 -68 183 -270zM434 273c0 152 -42 190 -111 190c-34 0 -68 -11 -134 -45v-337c47 -12 87 -16 112 -16c75 0 133 38 133 208z" />
    <glyph glyph-name="ydieresis" unicode="&#xff;" horiz-adv-x="519" 
d="M481 531l-150 -537c-44 -158 -102 -224 -193 -224c-34 0 -57 7 -114 26l23 75c47 -19 82 -23 98 -23c30 0 52 15 75 82l23 70h-27l-180 531h92l130 -385c8 -25 13 -53 13 -65h6c0 12 5 42 11 64l105 386h88zM219 654c0 -32 -18 -50 -48 -50s-49 17 -49 50
c0 32 18 49 49 49c28 0 48 -15 48 -49zM408 654c0 -32 -18 -50 -48 -50s-49 17 -49 50c0 32 18 49 49 49c28 0 48 -15 48 -49z" />
    <glyph glyph-name="uni00B5" horiz-adv-x="602" 
d="M501 0h-85v46h-6c-78 -46 -123 -52 -158 -52c-26 0 -47 4 -64 14v-228h-89v751h89v-400c0 -41 10 -59 66 -59c48 0 100 12 158 43v416h89v-531z" />
    </font>
</defs>
</svg>
